<svg version="1.1" id="Layer_1" xmlns="http://www.w3.org/2000/svg" xmlns:xlink="http://www.w3.org/1999/xlink" x="0px" y="0px" width="16px" height="16px" viewBox="0 0 16 16" enable-background="new 0 0 16 16" xml:space="preserve">
  <g id="icon">
    <path d="M11.78,13.117c-1.599,0,-2.923,-1.259,-3.023,-2.87c-0.194,-0.413,-0.453,-0.629,-0.769,-0.641c-0.309,0.012,-0.567,0.228,-0.761,0.641c-0.099,1.611,-1.423,2.87,-3.023,2.87c-0.843,0,-1.651,-0.358,-2.223,-0.983c-0.077,-0.029,-0.114,-0.1,-0.153,-0.182c-0.167,-0.214,-0.306,-0.449,-0.411,-0.698c-0.28,-0.374,-0.534,-0.556,-0.777,-0.556c-0.05,0,-0.094,0.007,-0.137,0.014c-0.041,0.006,-0.078,0.012,-0.117,0.012c-0.095,0,-0.177,-0.038,-0.23,-0.108c-0.123,-0.16,-0.282,-1.039,0.008,-1.28c0.088,-0.073,0.195,-0.082,0.298,-0.092c0.17,-0.015,0.428,-0.038,0.773,-0.341h-0.166c-0.14,0,-0.179,0.024,-0.243,0.063c-0.094,0.058,-0.21,0.13,-0.478,0.13H0.125L0.122,8.87c-0.01,-0.709,1.521,-2.701,3.822,-5.473c0.318,-0.383,0.569,-0.686,0.637,-0.781c0.192,-0.272,0.364,-0.399,0.542,-0.399c0.122,0,0.29,0.059,0.397,0.34c0.067,0.176,0.072,0.191,-1.459,2.195c-0.827,1.082,-2.763,3.615,-2.765,3.923v0.174c0.083,-0.078,0.171,-0.173,0.263,-0.287c0.535,-0.971,1.548,-1.573,2.646,-1.573c1.026,0,1.972,0.518,2.535,1.388c0.096,0.079,0.194,0.115,0.315,0.115c0.136,0,0.283,-0.044,0.438,-0.091c0.084,-0.025,0.17,-0.051,0.258,-0.071c0.065,-0.023,0.135,-0.034,0.208,-0.034c0.013,0,0.026,0.001,0.039,0.001c0.003,-0.001,0.016,-0.001,0.029,-0.001c0.073,0,0.142,0.012,0.208,0.034c0.088,0.02,0.174,0.046,0.258,0.071c0.156,0.047,0.303,0.091,0.439,0.091c0.121,0,0.219,-0.036,0.315,-0.115c0.562,-0.869,1.509,-1.388,2.535,-1.388c1.098,0,2.111,0.602,2.646,1.573c0.062,0.076,0.121,0.143,0.178,0.203v-0.09c-0.002,-0.307,-1.868,-2.748,-2.764,-3.921c-1.533,-2.006,-1.528,-2.02,-1.461,-2.196c0.107,-0.281,0.275,-0.34,0.397,-0.34c0.177,0,0.35,0.127,0.542,0.399c0.067,0.095,0.318,0.398,0.636,0.781c2.301,2.773,3.832,4.764,3.822,5.473l-0.003,0.225h-0.223c-0.267,0,-0.384,-0.072,-0.478,-0.13c-0.064,-0.039,-0.102,-0.063,-0.243,-0.063h-0.081c0.345,0.303,0.603,0.326,0.772,0.341c0.103,0.009,0.21,0.019,0.298,0.092c0.29,0.24,0.131,1.12,0.008,1.28c-0.053,0.069,-0.135,0.108,-0.23,0.108c-0.039,0,-0.076,-0.006,-0.116,-0.012c-0.044,-0.007,-0.088,-0.014,-0.138,-0.014c-0.243,0,-0.498,0.182,-0.777,0.556c-0.105,0.249,-0.243,0.484,-0.411,0.698c-0.039,0.081,-0.076,0.152,-0.153,0.182C13.431,12.759,12.622,13.117,11.78,13.117zM11.831,8.293c-0.968,0,-1.756,0.797,-1.756,1.776s0.788,1.776,1.756,1.776s1.756,-0.797,1.756,-1.776S12.799,8.293,11.831,8.293zM4.153,8.293c-0.968,0,-1.756,0.797,-1.756,1.776s0.788,1.776,1.756,1.776s1.756,-0.797,1.756,-1.776S5.121,8.293,4.153,8.293z" fill-rule="evenodd" fill="#6D6E71"/>
  </g>
</svg>