<svg version="1.1" id="Layer_1" xmlns="http://www.w3.org/2000/svg" xmlns:xlink="http://www.w3.org/1999/xlink" x="0px" y="0px" width="16px" height="16px" viewBox="0 0 16 16" enable-background="new 0 0 16 16" xml:space="preserve">
  <g id="icon">
    <path d="M11.918,13.74c-0.299,-1.501,-0.83,-1.526,-3.735,-2.548c-0.424,-0.159,-0.544,-0.387,-0.512,-0.713c0.82,-0.976,1.313,-2.554,1.313,-3.657c0,-1.709,-0.585,-2.791,-2.984,-2.791c-0.01,0,0.003,0,0,0c-2.398,0,-2.935,1.082,-2.935,2.791c0,1.103,0.492,2.679,1.311,3.654c0.032,0.326,-0.089,0.556,-0.513,0.714C0.958,12.212,0.426,12.238,0.127,13.739c-0.09,0.603,-0.105,0.856,0.134,1.525c0.269,0.753,4.073,0.654,5.739,0.654c0.007,0,-0.011,0,0,0c1.665,0,5.514,0.099,5.783,-0.654C12.023,14.596,12.008,14.344,11.918,13.74z" fill-rule="evenodd" fill="#3E79B4"/>
    <path d="M6.006,2.95c0.002,-0.236,0.005,-0.377,0.008,-0.386c0.077,0.136,0.216,0.269,0.408,0.397C6.287,2.955,6.149,2.95,6.006,2.95zM10.962,2.942c2.752,0,5.008,-0.693,5.008,-1.577S13.738,0,10.987,0C8.235,0,6.034,0.48,6.034,1.364S8.21,2.942,10.962,2.942zM10.989,3.911c-0.769,0,-1.486,-0.058,-2.123,-0.158c0.116,0.092,0.224,0.192,0.325,0.301c0.787,0.854,0.878,1.989,0.878,2.767c0,1.141,-0.391,2.479,-1,3.534c0.099,0.034,0.194,0.067,0.286,0.099c1.458,0.504,2.372,0.82,2.944,1.488c2.123,-0.247,3.701,-1.107,3.701,-2.463c0,-0.079,0.001,-6.081,0.001,-6.915C15.681,3.317,13.489,3.911,10.989,3.911z" fill="#EAB765"/>
  </g>
</svg>