<svg version="1.1" id="Layer_1" xmlns="http://www.w3.org/2000/svg" xmlns:xlink="http://www.w3.org/1999/xlink" x="0px" y="0px" width="16px" height="16px" viewBox="0 0 16 16" enable-background="new 0 0 16 16" xml:space="preserve">
  <g id="icon">
    <path d="M7.446,4.95c0,0,-0.13,-0.956,-0.037,-1.181c0.093,-0.225,0.242,-0.412,0.334,-0.656s0.186,-1.087,0.186,-1.087" fill="none" stroke="#58595B" stroke-width="1.1" stroke-linecap="round" stroke-miterlimit="10" stroke-linejoin="round"/>
    <path d="M10.886,8.533c0,0,0.948,0.131,1.171,0.037s0.409,-0.244,0.65,-0.337c0.242,-0.094,1.134,-0.244,1.134,-0.244" fill="none" stroke="#58595B" stroke-width="1.1" stroke-linecap="round" stroke-miterlimit="10" stroke-linejoin="round"/>
    <path d="M9.717,0.5c1.366,1.097,1.02,1.753,0.769,3.412" fill="none" stroke="#58595B" stroke-width="0.9" stroke-linecap="round" stroke-miterlimit="10" stroke-linejoin="round"/>
    <path d="M15.397,6.131c-1.087,-1.378,-1.735,-0.928,-3.379,-0.675" fill="none" stroke="#58595B" stroke-width="0.9" stroke-linecap="round" stroke-miterlimit="10" stroke-linejoin="round"/>
    <path d="M10.289,9.787l0.372,1.631c0,0,-0.204,1.256,-0.204,1.5s0.334,0.75,0.334,0.75" fill="none" stroke="#58595B" stroke-width="1.1" stroke-linecap="round" stroke-miterlimit="10" stroke-linejoin="round"/>
    <path d="M7.948,12.356l-0.167,1.319c0,0,-0.614,0.844,-0.669,1.081c-0.055,0.237,0.111,0.731,0.111,0.731" fill="none" stroke="#58595B" stroke-width="1.1" stroke-linecap="round" stroke-miterlimit="10" stroke-linejoin="round"/>
    <path d="M6.047,5.563L4.43,5.188c0,0,-1.245,0.206,-1.487,0.206S2.2,5.057,2.2,5.057" fill="none" stroke="#58595B" stroke-width="1.1" stroke-linecap="round" stroke-miterlimit="10" stroke-linejoin="round"/>
    <path d="M3.604,7.926l-1.505,0.169c0,0,-0.636,0.519,-0.871,0.575s-0.725,-0.112,-0.725,-0.112" fill="none" stroke="#58595B" stroke-width="1.1" stroke-linecap="round" stroke-miterlimit="10" stroke-linejoin="round"/>
    <path d="M5.397,5.439c1.04,-0.426,1.702,-0.553,2.643,-0.799c0.147,0.533,0.741,1.152,1.419,1.836c0.666,0.672,1.252,1.244,1.761,1.392c-0.229,0.907,-0.338,1.535,-0.86,2.578c-1.091,2.741,-4.321,4.618,-6.931,1.985C0.819,9.798,2.766,6.626,5.397,5.439z" fill-rule="evenodd" fill="#797979"/>
    <path d="M11.422,7.02c-0.402,-0.322,-0.885,-0.719,-1.358,-1.197c-0.491,-0.495,-0.896,-1.001,-1.221,-1.415c0.034,-0.081,0.084,-0.157,0.152,-0.225c0.473,-0.477,1.721,-0.543,2.477,0.22c0.756,0.763,0.712,1.958,0.239,2.435C11.626,6.924,11.528,6.984,11.422,7.02z" fill-rule="evenodd" fill="#58595B"/>
  </g>
</svg>