<svg version="1.1" id="Layer_1" xmlns="http://www.w3.org/2000/svg" xmlns:xlink="http://www.w3.org/1999/xlink" x="0px" y="0px" width="32px" height="32px" viewBox="0 0 32 32" enable-background="new 0 0 32 32" xml:space="preserve">
<g>  
<g id="icon">
    <path d="M19.709,1.5c2.484,1.994,1.673,3.733,1.216,6.75" fill="none" stroke="#58595B" stroke-width="1.2" stroke-linecap="round" stroke-miterlimit="10" stroke-linejoin="round"/>
    <path d="M30.4,12.285c-1.977,-2.506,-3.7,-1.687,-6.69,-1.227" fill="none" stroke="#58595B" stroke-width="1.2" stroke-linecap="round" stroke-miterlimit="10" stroke-linejoin="round"/>
    <path d="M15.398,10.138c0,0,-0.237,-1.739,-0.068,-2.148c0.169,-0.409,0.439,-0.75,0.608,-1.193c0.169,-0.443,0.338,-1.977,0.338,-1.977" fill="none" stroke="#58595B" stroke-width="1.5" stroke-linecap="round" stroke-miterlimit="10" stroke-linejoin="round"/>
    <path d="M21.652,16.652c0,0,1.723,0.239,2.129,0.068s0.743,-0.443,1.183,-0.614c0.439,-0.17,2.061,-0.443,2.061,-0.443" fill="none" stroke="#58595B" stroke-width="1.5" stroke-linecap="round" stroke-miterlimit="10" stroke-linejoin="round"/>
    <path d="M20.567,18.933l0.676,2.966c0,0,-0.372,2.284,-0.372,2.727c0,0.443,0.608,1.364,0.608,1.364" fill="none" stroke="#58595B" stroke-width="1.5" stroke-linecap="round" stroke-miterlimit="10" stroke-linejoin="round"/>
    <path d="M16.31,24.148l-0.304,2.761c0,0,-1.116,1.716,-1.216,2.148c-0.101,0.431,0.203,1.329,0.203,1.329" fill="none" stroke="#58595B" stroke-width="1.5" stroke-linecap="round" stroke-miterlimit="10" stroke-linejoin="round"/>
    <path d="M12.853,11.252l-2.94,-0.682c0,0,-2.264,0.375,-2.703,0.375c-0.439,0,-1.352,-0.614,-1.352,-0.614" fill="none" stroke="#58595B" stroke-width="1.5" stroke-linecap="round" stroke-miterlimit="10" stroke-linejoin="round"/>
    <path d="M7.683,15.548l-2.737,0.307c0,0,-1.701,1.126,-2.129,1.227S1.5,16.877,1.5,16.877" fill="none" stroke="#58595B" stroke-width="1.5" stroke-linecap="round" stroke-miterlimit="10" stroke-linejoin="round"/>
    <path d="M11.671,11.026c1.89,-0.774,3.458,-1.369,5.169,-1.817c0.268,0.969,1.347,2.094,2.58,3.338c1.211,1.222,2.277,2.261,3.202,2.532c-0.417,1.649,-0.979,3.155,-1.928,5.051c-1.984,4.984,-7.857,8.397,-12.602,3.61C3.348,18.952,6.887,13.184,11.671,11.026z" fill-rule="evenodd" fill="#797979"/>
    <path d="M22.627,13.901c-0.731,-0.586,-1.609,-1.308,-2.469,-2.176c-0.892,-0.9,-1.629,-1.82,-2.221,-2.572c0.062,-0.148,0.153,-0.285,0.276,-0.41c0.859,-0.867,3.13,-0.987,4.505,0.4c1.375,1.387,1.294,3.56,0.435,4.427C22.997,13.726,22.82,13.835,22.627,13.901z" fill-rule="evenodd" fill="#3E79B4"/>
      <path d="M29.375,25c0,2.4162,-1.9588,4.375,-4.375,4.375c-2.4162,0,-4.375,-1.9588,-4.375,-4.375c0,-2.4162,1.9588,-4.375,4.375,-4.375C27.4162,20.625,29.375,22.5838,29.375,25z" fill="#FFFFFF"/>

  </g>
    <g id="overlay">
      <path d="M25,18c-3.866,0,-7,3.134,-7,7s3.134,7,7,7s7,-3.134,7,-7S28.866,18,25,18zM25,29.375c-2.4162,0,-4.375,-1.9588,-4.375,-4.375s1.9588,-4.375,4.375,-4.375s4.375,1.9588,4.375,4.375S27.4162,29.375,25,29.375z" fill="#c2d3e6"/>
      <path d="M29.375,25c0,2.4162,-1.9588,4.375,-4.375,4.375c-2.4162,0,-4.375,-1.9588,-4.375,-4.375c0,-2.4162,1.9588,-4.375,4.375,-4.375C27.4162,20.625,29.375,22.5838,29.375,25z" fill="#FFFFFF"/>
      <circle cx="24.9563" cy="24.9563" r="3.325" fill="#CD4C32"/>
    </g>
   </g>
</svg>