<svg version="1.1" id="Layer_1" xmlns="http://www.w3.org/2000/svg" xmlns:xlink="http://www.w3.org/1999/xlink" x="0px" y="0px" width="16px" height="16px" viewBox="0 0 16 16" enable-background="new 0 0 16 16" xml:space="preserve">
  <g id="icon">
    <path d="M2.5323,6.9756c-0.3813,-0.1311,-0.6656,-0.2509,-0.845,-0.3562c-0.16,-0.0938,-0.2725,-0.1938,-0.3346,-0.2973c-0.0611,-0.1018,-0.0921,-0.2413,-0.0921,-0.4147c0,-0.2223,0.0774,-0.3826,0.2435,-0.5046c0.1799,-0.1322,0.4435,-0.1992,0.7837,-0.1992c0.4641,0,0.9507,0.1015,1.4462,0.3018c0.0561,0.0226,0.1195,0.0221,0.1753,-0.0015c0.0557,-0.0236,0.099,-0.0683,0.1195,-0.1235l0.2307,-0.62c0.0394,-0.1058,-0.0131,-0.2228,-0.12,-0.2678c-0.5568,-0.2342,-1.1739,-0.353,-1.8342,-0.353c-0.6546,0,-1.1928,0.1564,-1.5997,0.4647c-0.423,0.3206,-0.6374,0.7562,-0.6374,1.2948c0,0.5009,0.1466,0.9161,0.4357,1.234c0.2818,0.31,0.727,0.5669,1.3613,0.7853c0.4092,0.1403,0.7156,0.266,0.9107,0.3736c0.1747,0.0965,0.298,0.1986,0.3665,0.3034c0.0655,0.1004,0.0987,0.2377,0.0987,0.4079c0,0.2523,-0.0934,0.4423,-0.2855,0.5811c-0.2092,0.151,-0.5393,0.2276,-0.9811,0.2276c-0.2853,0,-0.5777,-0.0296,-0.869,-0.0877c-0.292,-0.0583,-0.5651,-0.1387,-0.8119,-0.239C0.2253,9.4573,0.154,9.4644,0.092,9.504C0.03,9.5435,0,9.6104,0,9.682v0.687c0,0.0823,0.0418,0.1571,0.1188,0.1927c0.4405,0.203,1.0377,0.3016,1.8332,0.3016c0.7433,0,1.3435,-0.1671,1.7877,-0.4969c0.4616,-0.3428,0.6948,-0.8239,0.6948,-1.4301c0,-0.4722,-0.1468,-0.8647,-0.4356,-1.1668C3.7204,7.4783,3.2403,7.2186,2.5323,6.9756zM9.5469,10.5939l1.0838,1.0889c0.0616,0.0617,0.079,0.1773,0.0441,0.2561c-0.0348,0.0788,-0.1152,0.1612,-0.2041,0.1612H9.3957c-0.0645,0,-0.1258,-0.0583,-0.168,-0.1053l-0.9709,-1.1275l-0.133,0.0003c-0.0027,0.0001,-0.0053,-0.002,-0.008,-0.002c-0.9991,0,-1.7849,-0.3036,-2.3356,-0.9002c-0.544,-0.5891,-0.8199,-1.4232,-0.8199,-2.4779c0,-1.0466,0.2768,-1.875,0.8227,-2.4615c0.5522,-0.5934,1.3399,-0.8944,2.3415,-0.8944c0.976,0,1.7525,0.3061,2.3076,0.9099c0.5482,0.5963,0.8261,1.4218,0.8261,2.4539c0,0.8207,-0.1763,1.5163,-0.524,2.0673C10.4406,10.0276,10.0422,10.3757,9.5469,10.5939zM6.1876,7.4951c0,0.7748,0.1682,1.364,0.4999,1.7514c0.3257,0.3804,0.7929,0.5653,1.4283,0.5653c0.6405,0,1.1065,-0.1838,1.425,-0.5619c0.3252,-0.3864,0.4901,-0.9768,0.4901,-1.7549c0,-0.7698,-0.1642,-1.3553,-0.4881,-1.7403c-0.317,-0.3766,-0.781,-0.5597,-1.4184,-0.5597c-0.6412,0,-1.1112,0.1849,-1.437,0.5653C6.3558,6.1479,6.1876,6.7315,6.1876,7.4951zM15.7706,9.7H13.4V4.4412c0,-0.118,-0.1982,-0.2412,-0.3208,-0.2412h-0.6819c-0.1226,0,-0.1973,0.1232,-0.1973,0.2412v6.1805c0,0.118,0.0747,0.1783,0.1973,0.1783h3.3733c0.1226,0,0.2294,-0.0603,0.2294,-0.1783v-0.701C16,9.8028,15.8932,9.7,15.7706,9.7z" fill="#58595B"/>
  </g>
</svg>