<svg version="1.1" id="Layer_1" xmlns="http://www.w3.org/2000/svg" xmlns:xlink="http://www.w3.org/1999/xlink" x="0px" y="0px" width="16px" height="16px" viewBox="0 0 16 16" enable-background="new 0 0 16 16" xml:space="preserve">
  <g id="main">
    <g id="icon">
      <path d="M4.452,0.05625L4.218,0.21L4.059,0.4379L4,0.717L4,3L13,3L13,0.717L12.94,0.4379L12.79,0.21L12.56,0.05625L12.28,0L4.733,0zM12,1L12,2L10,2L10,1zM4,6.031L4.5,6L5.062,6.029L5.607,6.112L6.134,6.248L6.639,6.433L7.12,6.665L7.573,6.941L7.996,7.257L8.387,7.613L8.743,8.004L9.059,8.427L9.335,8.88L9.567,9.361L9.752,9.866L9.855,10.27L9.871,10.32L9.873,10.34L9.888,10.39L9.971,10.94L10,11.5L9.957,12.19L9.833,12.85L9.632,13.48L9.359,14.07L9.02,14.63L8.728,15L12.28,15L12.56,14.94L12.79,14.79L12.94,14.56L13,14.28L13,4L4,4zz" fill="#797979"/>
      <path d="M10,2L12,2L12,1L10,1zM9.873,10.34L9.871,10.32L9.855,10.27zz" fill-rule="evenodd" fill="#FFFFFF"/>
    </g>
    <g id="overlay">
      <path d="M7.682,14.682c1.7574,-1.7574,1.7574,-4.6066,0,-6.364c-1.7574,-1.7574,-4.6066,-1.7574,-6.364,0c-1.7574,1.7574,-1.7574,4.6066,0,6.364C3.0754,16.4393,5.9246,16.4393,7.682,14.682zM3.5,14l2,-2H1.5v-1h4L3.5,9h1.6l2.5,2.5l-2.5,2.5L3.5,14z" fill-rule="evenodd" fill="#3E79B4"/>
      <polygon points="7.6,11.5 5.1,9 3.5,9 5.5,11 1.5,11 1.5,12 5.5,12 3.5,14 5.1,14" fill="#FFFFFF" stroke-linejoin="miter"/>
    </g>
  </g>
</svg>