<svg version="1.1" id="Layer_1" xmlns="http://www.w3.org/2000/svg" xmlns:xlink="http://www.w3.org/1999/xlink" x="0px" y="0px" width="32px" height="32px" viewBox="0 0 32 32" enable-background="new 0 0 32 32" xml:space="preserve">
  <g id="main">
    <g id="icon">
      <path d="M7.557,0.07168L7.267,0.2672L7.072,0.5572L7,0.9125L7,3L23,3L23,0.9125L22.93,0.5572L22.73,0.2672L22.44,0.07168L22.09,0L7.913,0zM21,1L21,2L18,2L18,1zM7,7L23,7L23,4L7,4zM21,5L21,6L18,6L18,5zM7,29.09L7.072,29.44L7.267,29.73L7.557,29.93L7.913,30L18.63,30L18.59,29.96L18.01,29.1L17.54,28.16L17.19,27.16L16.97,26.1L16.9,25L16.92,24.52L16.84,24.78L16.66,25.12L16.41,25.41L16.12,25.66L15.78,25.84L15.4,25.96L15,26L14.6,25.96L14.22,25.84L13.88,25.66L13.59,25.41L13.34,25.12L13.16,24.78L13.04,24.4L13,24L13.04,23.6L13.16,23.22L13.34,22.88L13.59,22.59L13.88,22.34L14.22,22.16L14.6,22.04L15,22L15.4,22.04L15.78,22.16L16.12,22.34L16.41,22.59L16.66,22.88L16.84,23.22L16.96,23.6L16.99,23.87L17.06,23.37L17.26,22.59L17.54,21.85L17.88,21.14L18.28,20.47L18.75,19.85L19.27,19.27L19.85,18.75L20.47,18.28L21.14,17.88L21.85,17.54L22.59,17.26L23,17.16L23,8L7,8zz" fill="#797979"/>
      <path d="M18,2L21,2L21,1L18,1zM18,6L21,6L21,5L18,5zM14.6,22.04L14.22,22.16L13.88,22.34L13.59,22.59L13.34,22.88L13.16,23.22L13.04,23.6L13,24L13.04,24.4L13.16,24.78L13.34,25.12L13.59,25.41L13.88,25.66L14.22,25.84L14.6,25.96L15,26L15.4,25.96L15.78,25.84L16.12,25.66L16.41,25.41L16.66,25.12L16.84,24.78L16.92,24.52L16.94,24.17L16.99,23.87L16.96,23.6L16.84,23.22L16.66,22.88L16.41,22.59L16.12,22.34L15.78,22.16L15.4,22.04L15,22zz" fill="#FFFFFF"/>
    </g>
    <g id="overlay">
      <path d="M25,18c-3.866,0,-7,3.134,-7,7c0,3.866,3.134,7,7,7s7,-3.134,7,-7C32,21.134,28.866,18,25,18zM26,29.8c0,0.1105,-0.0895,0.2,-0.2,0.2h-1.6c-0.1105,0,-0.2,-0.0895,-0.2,-0.2v-6.6c0,-0.1105,0.0895,-0.2,0.2,-0.2h1.6c0.1105,0,0.2,0.0895,0.2,0.2V29.8zM26,21.5c0,0.1105,-0.0895,0.2,-0.2,0.2h-1.6c-0.1105,0,-0.2,-0.0895,-0.2,-0.2v-1.3c0,-0.1105,0.0895,-0.2,0.2,-0.2h1.6c0.1105,0,0.2,0.0895,0.2,0.2V21.5z" fill-rule="evenodd" fill="#3E79B4"/>
      <path d="M26,20.2c0,-0.1105,-0.0895,-0.2,-0.2,-0.2h-1.6c-0.1105,0,-0.2,0.0895,-0.2,0.2v1.3c0,0.1105,0.0895,0.2,0.2,0.2h1.6c0.1105,0,0.2,-0.0895,0.2,-0.2V20.2z" fill="#FFFFFF"/>
      <path d="M26,23.2c0,-0.1105,-0.0895,-0.2,-0.2,-0.2h-1.6c-0.1105,0,-0.2,0.0895,-0.2,0.2v6.6c0,0.1105,0.0895,0.2,0.2,0.2h1.6c0.1105,0,0.2,-0.0895,0.2,-0.2V23.2z" fill="#FFFFFF"/>
    </g>
  </g>
</svg>