<svg version="1.1" id="Layer_1" xmlns="http://www.w3.org/2000/svg" xmlns:xlink="http://www.w3.org/1999/xlink" x="0px" y="0px" width="32px" height="32px" viewBox="0 0 32 32" enable-background="new 0 0 32 32" xml:space="preserve">
  <g id="icon">
    <path d="M23.198,25.954c-2.961,0,-5.393,-2.303,-5.559,-5.251c-0.402,-0.866,-0.954,-1.318,-1.64,-1.344c-0.686,0.026,-1.237,0.478,-1.64,1.344c-0.165,2.948,-2.598,5.251,-5.559,5.251c-1.577,0,-3.066,-0.662,-4.122,-1.825c-0.105,-0.019,-0.149,-0.101,-0.234,-0.276c-0.318,-0.399,-0.579,-0.838,-0.777,-1.306c-0.575,-0.766,-1.112,-1.139,-1.641,-1.139c-0.111,0,-0.206,0.015,-0.291,0.028c-0.07,0.011,-0.131,0.021,-0.191,0.021c-0.156,0,-0.243,-0.07,-0.289,-0.129c-0.213,-0.274,-0.446,-1.789,-0.014,-2.143c0.123,-0.1,0.281,-0.114,0.464,-0.131c0.448,-0.04,1.195,-0.106,2.221,-1.364c0.982,-1.773,2.847,-2.873,4.873,-2.873c1.897,0,3.642,0.951,4.675,2.545c0.223,0.189,0.459,0.277,0.741,0.277c0.285,0,0.577,-0.087,0.887,-0.179c0.159,-0.047,0.324,-0.096,0.488,-0.132c0.107,-0.038,0.223,-0.058,0.344,-0.058c0.022,0,0.043,0.001,0.065,0.002c0.021,-0.001,0.043,-0.002,0.064,-0.002c0.121,0,0.236,0.019,0.344,0.057c0.164,0.036,0.328,0.085,0.488,0.132c0.31,0.092,0.602,0.179,0.887,0.179c0.282,0,0.518,-0.088,0.741,-0.277c1.033,-1.594,2.777,-2.545,4.675,-2.545c2.025,0,3.89,1.1,4.873,2.873c1.026,1.258,1.774,1.324,2.221,1.364c0.183,0.016,0.341,0.03,0.464,0.131c0.432,0.354,0.199,1.869,-0.014,2.143c-0.046,0.059,-0.133,0.129,-0.289,0.129c0,0,0,0,0,0c-0.06,0,-0.121,-0.01,-0.191,-0.021c-0.085,-0.013,-0.181,-0.028,-0.291,-0.028c-0.529,0,-1.066,0.372,-1.641,1.139c-0.197,0.467,-0.458,0.906,-0.777,1.306c-0.085,0.175,-0.129,0.256,-0.234,0.276C26.264,25.292,24.776,25.954,23.198,25.954zM23.295,16.894c-1.943,0,-3.524,1.581,-3.524,3.524s1.581,3.524,3.524,3.524c1.943,0,3.524,-1.581,3.524,-3.524S25.238,16.894,23.295,16.894zM8.705,16.894c-1.943,0,-3.524,1.581,-3.524,3.524s1.581,3.524,3.524,3.524c1.943,0,3.524,-1.581,3.524,-3.524S10.648,16.894,8.705,16.894zM30.365,18.4c-0.455,0,-0.644,-0.115,-0.81,-0.216c-0.134,-0.081,-0.239,-0.146,-0.559,-0.146h-0.242v-0.242c0,-0.637,-3.314,-4.923,-5.295,-7.484c-2.768,-3.579,-2.832,-3.717,-2.746,-3.94c0.132,-0.344,0.327,-0.518,0.579,-0.518c0.271,0,0.55,0.213,0.877,0.671c0.131,0.184,0.587,0.727,1.218,1.478c3.761,4.478,7.239,8.809,7.22,10.157l-0.003,0.238H30.365zM1.236,18.4l-0.003,-0.238c-0.019,-1.349,3.458,-5.679,7.219,-10.157c0.631,-0.752,1.087,-1.295,1.219,-1.479c0.327,-0.458,0.606,-0.671,0.877,-0.671c0.252,0,0.446,0.174,0.579,0.518c0.086,0.222,0.021,0.361,-2.747,3.94c-1.98,2.561,-5.294,6.846,-5.294,7.483v0.242h-0.242c-0.32,0,-0.425,0.064,-0.559,0.146c-0.166,0.101,-0.355,0.216,-0.81,0.216H1.236z" fill-rule="evenodd" fill="#6D6E71"/>
  </g>
</svg>