<svg version="1.1" id="Layer_1" xmlns="http://www.w3.org/2000/svg" xmlns:xlink="http://www.w3.org/1999/xlink" x="0px" y="0px" width="16px" height="16px" viewBox="0 0 16 16" enable-background="new 0 0 16 16" xml:space="preserve">
  <g id="main">
    <g id="icon">
      <path d="M3.452,0.05625L3.218,0.21L3.059,0.4379L3,0.717L3,3L12,3L12,0.717L11.94,0.4379L11.79,0.21L11.56,0.05625L11.28,0L3.733,0zM11,1L11,2L9,2L9,1zM3,14.28L3.059,14.56L3.218,14.79L3.452,14.94L3.733,15L7.272,15L6.98,14.63L6.641,14.07L6.368,13.48L6.167,12.85L6.043,12.19L6,11.5L6.029,10.94L6.112,10.39L6.127,10.34L6.129,10.32L6.145,10.27L6.248,9.866L6.433,9.361L6.665,8.88L6.941,8.427L7.257,8.004L7.613,7.613L8.004,7.257L8.427,6.941L8.88,6.665L9.361,6.433L9.866,6.248L10.39,6.112L10.94,6.029L11.5,6L12,6.031L12,4L3,4zz" fill="#797979"/>
      <path d="M9,2L11,2L11,1L9,1zM6.129,10.32L6.127,10.34L6.145,10.27zz" fill-rule="evenodd" fill="#FFFFFF"/>
    </g>
    <g id="overlay">
      <path d="M14.682,14.682c1.7574,-1.7574,1.7574,-4.6066,0,-6.364c-1.7574,-1.7574,-4.6066,-1.7574,-6.364,0c-1.7574,1.7574,-1.7574,4.6066,0,6.364C10.0754,16.4393,12.9246,16.4393,14.682,14.682zM10.5,14l2,-2H8.5v-1h4l-2,-2h1.6l2.5,2.5l-2.5,2.5L10.5,14z" fill-rule="evenodd" fill="#3E79B4"/>
      <polygon points="14.6,11.5 12.1,9 10.5,9 12.5,11 8.5,11 8.5,12 12.5,12 10.5,14 12.1,14" fill="#FFFFFF" stroke-linejoin="miter"/>
    </g>
  </g>
</svg>