<svg version="1.1" id="Layer_1" xmlns="http://www.w3.org/2000/svg" xmlns:xlink="http://www.w3.org/1999/xlink" x="0px" y="0px" width="16px" height="16px" viewBox="0 0 16 16" enable-background="new 0 0 16 16" xml:space="preserve">
  <g id="icon">
    <g>
      <path d="M6.125,8.191c0.798,0.572,1.33,0.883,1.845,0.883c0.518,0,1.071,-0.313,1.909,-0.891l0.03,-0.019c0.279,-0.16,3.371,-3.001,6.1,-5.561c-0.001,-0.324,-0.248,-0.587,-0.552,-0.587H0.543c-0.304,0,-0.551,0.264,-0.552,0.588C0.504,3.091,5.055,7.409,6.125,8.191z" fill="#797979"/>
      <path d="M10.409,8.933c-0.942,0.648,-1.679,1.05,-2.44,1.05c-0.766,0,-1.486,-0.407,-2.401,-1.062c-0.922,-0.674,-4.136,-3.687,-5.576,-5.048v9.521c0,0.325,0.248,0.589,0.552,0.589h14.915c0.304,0,0.552,-0.264,0.552,-0.589V3.866C14.249,5.513,10.908,8.618,10.409,8.933z" fill="#797979"/>
    </g>
  </g>
</svg>
