<svg version="1.1" id="Layer_1" xmlns="http://www.w3.org/2000/svg" xmlns:xlink="http://www.w3.org/1999/xlink" x="0px" y="0px" width="16px" height="16px" viewBox="0 0 16 16" enable-background="new 0 0 16 16" xml:space="preserve">
  <g id="main">
    <g id="icon">
      <path d="M7.022,1.617L6.928,1.861L6.876,2.266L6.775,2.77L6.495,3.318L6.439,3.503L6.408,3.766L6.404,3.854L6.42,4.226L6.423,4.26L6.473,4.735L6.625,5.06L6.946,5.222L7.298,5.152L7.532,4.879L7.567,4.619L7.519,4.162L7.505,3.852L7.52,3.73L7.789,3.202L7.838,3.06L7.958,2.464L7.964,2.425L8.019,2.001L7.945,1.649L7.671,1.418L7.312,1.405zz" fill="#58595B"/>
      <path d="M8.867,0.1514L8.709,0.4211L8.764,0.7287L8.85,0.834L9.232,1.179L9.457,1.459L9.578,1.704L9.632,1.955L9.637,2.254L9.595,2.627L9.43,3.63L9.49,3.937L9.735,4.131L10.05,4.118L10.28,3.905L10.32,3.776L10.48,2.763L10.49,2.74L10.53,2.326L10.54,2.27L10.53,1.897L10.52,1.807L10.45,1.459L10.41,1.356L10.24,1.017L10.19,0.9338L9.912,0.5875L9.862,0.5352L9.454,0.166L9.163,0.0502zz" fill="#58595B"/>
      <path d="M12.71,4.458L12.66,4.463L12.25,4.525L12.23,4.527L11.23,4.71L10.96,4.87L10.86,5.166L10.98,5.456L11.26,5.6L11.39,5.596L12.39,5.414L12.77,5.356L13.06,5.347L13.3,5.388L13.54,5.495L13.81,5.707L14.15,6.086L14.42,6.232L14.73,6.163L14.92,5.911L14.89,5.599L14.82,5.486L14.45,5.078L14.4,5.024L14.05,4.754L13.96,4.699L13.63,4.545L13.51,4.511L13.17,4.452L13.08,4.446zz" fill="#58595B"/>
      <path d="M6.227,13.61L6.156,13.87L6.151,14.07L6.158,14.18L6.197,14.4L6.209,14.45L6.281,14.71L6.485,15.01L6.828,15.12L7.163,14.99L7.207,14.92L6.98,14.63L6.641,14.07L6.368,13.48L6.344,13.4zz" fill="#58595B"/>
      <path d="M1.706,4.391L1.551,4.715L1.628,5.065L1.814,5.25L2.078,5.408L2.125,5.433L2.354,5.542L2.461,5.58L2.665,5.629L2.871,5.64L4.165,5.46L5.583,5.789L5.94,5.751L6.198,5.501L6.246,5.146L6.065,4.836L5.831,4.717L4.314,4.365L4.114,4.356L2.823,4.536L2.776,4.524L2.621,4.451L2.38,4.306L2.029,4.232zz" fill="#58595B"/>
      <path d="M1.939,7.081L1.665,7.192L1.366,7.421L1.025,7.622L1.023,7.622L0.8826,7.598L0.6527,7.533L0.2941,7.553L0.02461,7.79L-0,7.923L0,8.222L0.1254,8.462L0.3533,8.591L0.6107,8.664L0.6662,8.677L0.8896,8.716L1,8.724L1.199,8.718L1.463,8.642L1.954,8.352L2.009,8.314L2.213,8.158L3.474,8.017L3.798,7.862L3.958,7.541L3.886,7.189L3.612,6.957L3.352,6.923zz" fill="#58595B"/>
      <path d="M6.372,4.698L5.097,5.136L4.208,5.637L3.422,6.284L2.781,7.051L2.529,7.47L2.329,7.909L2.186,8.363L2.107,8.83L2.096,9.307L2.158,9.788L2.3,10.27L2.525,10.75L2.841,11.23L3.251,11.7L3.716,12.11L4.192,12.43L4.673,12.67L5.157,12.81L5.639,12.88L6.115,12.87L6.173,12.87L6.167,12.85L6.043,12.19L6,11.5L6.029,10.94L6.112,10.39L6.248,9.866L6.433,9.361L6.665,8.88L6.941,8.427L7.257,8.004L7.613,7.613L8.004,7.257L8.427,6.941L8.88,6.665L9.288,6.468L8.91,6.109L8.057,5.194L7.755,4.776L7.578,4.386zz" fill-rule="evenodd" fill="#797979"/>
      <path d="M9.218,3.637L8.925,3.7L8.672,3.808L8.474,3.957L8.331,4.169L8.846,4.804L9.477,5.497L10.14,6.113L10.2,6.162L10.39,6.112L10.94,6.029L11.27,6.012L11.28,6.003L11.33,5.717L11.34,5.406L11.3,5.083L11.2,4.759L11.03,4.448L10.8,4.163L10.51,3.93L10.2,3.766L9.869,3.665L9.537,3.624zz" fill-rule="evenodd" fill="#3E79B4"/>
    </g>
    <g id="overlay">
      <path d="M11.5,7c-2.4853,0,-4.5,2.0147,-4.5,4.5c0,2.4853,2.0147,4.5,4.5,4.5s4.5,-2.0147,4.5,-4.5C16,9.0147,13.9853,7,11.5,7zM13.3271,13.6H9.5729c-0.0955,0,-0.1729,-0.0774,-0.1729,-0.1729V9.6729C9.4,9.5774,9.4774,9.5,9.5729,9.5h3.7541c0.0955,0,0.1729,0.0774,0.1729,0.1729v3.7541C13.5,13.5226,13.4226,13.6,13.3271,13.6z" fill="#797979"/>
      <path d="M13.6,9.6729v3.7541c0,0.0955,-0.0774,0.1729,-0.1729,0.1729H9.6729c-0.0955,0,-0.1729,-0.0774,-0.1729,-0.1729V9.6729C9.5,9.5774,9.5774,9.5,9.6729,9.5h3.7541C13.5226,9.5,13.6,9.5774,13.6,9.6729z" fill="#FFFFFF"/>
    </g>
  </g>
</svg>